Avatar Extended Edit 3D.OU.2009.BluRay.1080p.AC3.x264.Over-Under.[PHD]
video 3D

   http://www.imdb.com/title/tt0499549/

INFO <> INFO <> INFO <> INFO

Format : Matroska
 File size : 18.5 GiB
 Duration : 2h 58mn
 Overall bit rate : 14.9 Mbps
 Movie name : BDRip - by TopGun
 Encoded date : UTC 2011-05-18 13:32:29
 Writing library : libebml v0.8.0 + libmatroska v0.9.0

Video:
 ID : 1
 Format : AVC
 Format/Info : Advanced Video Codec
 Format profile : High@L4.0
 Format settings, CABAC : Yes
 Format settings, ReFrames : 4 frames
 Muxing mode : Container profile=Unknown@4.0
 Codec ID : V_MPEG4/ISO/AVC
 Duration : 2h 57mn
 Bit rate : 13.3 Mbps
 Width : 1 920 pixels
 Height : 1 080 pixels
 Display aspect ratio : 0.889
 Original display aspect ratio : 16:9
 Frame rate : 23.976 fps
 Resolution : 8 bits
 Colorimetry : 4:2:0
 Scan type : Progressive
 Bits/(Pixel*Frame) : 0.268
 Stream size : 16.5 GiB (89%)
 Title : Avatar [Extended Cut]
 Writing library : x264 core 114 r1913 5fd3dce


Audio #1
 ID : 2
 Format : AC-3
 Format/Info : Audio Coding 3
 Codec ID : A_AC3
 Duration : 2h 58mn
 Bit rate mode : Constant
 Bit rate : 640 Kbps
 Channel(s) : 6 channels
 Channel positions : Front: L C R, Side: L R, LFE
 Sampling rate : 48.0 KHz
 Stream size : 816 MiB (4%)
 Language : Russian

Audio #2
 ID : 3
 Format : AC-3
 Format/Info : Audio Coding 3
 Codec ID : A_AC3
 Duration : 2h 58mn
 Bit rate mode : Constant
 Bit rate : 640 Kbps
 Channel(s) : 6 channels
 Channel positions : Front: L C R, Side: L R, LFE
 Sampling rate : 48.0 KHz
 Stream size : 816 MiB (4%)
 Language : English